<svg width="16" height="20" viewBox="0 0 16 20" fill="none" xmlns="http://www.w3.org/2000/svg">
<path d="M15.045 5.40039C15.423 5.02239 15.631 4.52039 15.631 3.98639C15.631 3.45239 15.423 2.95039 15.045 2.57239L13.459 0.986391C13.081 0.608391 12.579 0.400391 12.045 0.400391C11.511 0.400391 11.009 0.608391 10.632 0.985391L0 11.5844V15.9994H4.413L15.045 5.40039ZM12.045 2.40039L13.632 3.98539L12.042 5.56939L10.456 3.98439L12.045 2.40039ZM2 13.9994V12.4144L9.04 5.39639L10.626 6.98239L3.587 13.9994H2ZM0 17.9994H16V19.9994H0V17.9994Z" fill="#333333"/>
</svg>
